<svg xmlns="http://www.w3.org/2000/svg" viewBox="0 0 660.41 107.5"><defs><style>.cls-1{fill:#fc4700;}.cls-2{fill:#1e1e1e;}</style></defs><title>Asset 2</title><g id="Layer_2" data-name="Layer 2"><g id="Layer_1-2" data-name="Layer 1"><path class="cls-1" d="M115.19,72.41a16.52,16.52,0,0,1-3.84.48c-1.63,0-1.86-.71-1.92-4.15V48.57l10.21,0V37.44H109.45V23L93.78,25.08V37.44H85.56v11.1l8.28,0V70.4c0,4.45.33,6.33,1.54,8.77,2.16,4.27,7,6.73,13.2,6.73a35.48,35.48,0,0,0,9.47-1.41L123.51,83l-3-11.7Z"/><path class="cls-1" d="M25.05,71.57a8.1,8.1,0,0,1-5.67,2.58,4.44,4.44,0,0,1-4.49-4.59c0-2.84,1.62-5.46,10.52-5.6Zm14.81-2.29.34-18.12a20.16,20.16,0,0,0-.65-6.22c-1.92-6.19-8.45-9.61-17.79-9.61a42.86,42.86,0,0,0-13,1.84A33.75,33.75,0,0,0,3.7,39.4L7.9,50.13l3.54-1.52a27.49,27.49,0,0,1,9.42-1.45c3.76,0,4.43,1.1,4.54,4.91l-.11,1.55c-7.52.14-11.71.8-16.18,2.68-6,2.53-9.1,7.2-9.1,13.9,0,9.06,6.32,14.91,16.11,14.91a17.39,17.39,0,0,0,11.31-3.71l.16-.13,2.07,4.62,13.22-5-1-2.37a18.65,18.65,0,0,1-2-9.26"/><path class="cls-1" d="M73.83,37.35c-4.38-.08-7.48,1.42-11.28,5.31l-2.4-6.18L45.83,41.18l.87,2c.37.86,1,2.21,1,2.22,1.55,3.28,2,6.11,2,10.35V85.9H65.18V53.8c2.31-2.27,4.12-3.24,5.63-3.24a10.4,10.4,0,0,1,3.19.51c1.22.39,2.73.9,2.73.9l5-12.47-2.83-1.23a14.57,14.57,0,0,0-5.11-.92"/><path class="cls-1" d="M158.1,37.34a21.71,21.71,0,0,0-13.55,4.39l-.13.09L142.08,36l-14.56,5,.57,1.33c.29.65.63,1.59.63,1.59a20.26,20.26,0,0,1,1.78,9v33H146V52.38c2.7-2.1,4.54-2.85,6.84-2.85,2.07,0,3.93.45,3.93,5.9V85.9h15.49v-33c0-10.5-4.63-15.61-14.14-15.61"/><path class="cls-1" d="M256,72.42a16.81,16.81,0,0,1-3.84.48c-1.64,0-1.86-.71-1.92-4.15V48.57l10.19,0V37.45H250.25V23l-15.66,2.09V37.45h-8.23v11.1l8.29,0V70.4c0,4.45.34,6.34,1.55,8.77,2.14,4.27,7,6.73,13.19,6.73a35.09,35.09,0,0,0,9.48-1.4L264.31,83l-3-11.69Z"/><path class="cls-1" d="M194.27,54.19c1-6,3-7.2,6.21-7.2,2.65,0,4.73.58,5.18,7.21Zm6.8-18.34c-13.53,0-22.63,10.22-22.63,25.44,0,15.87,8.22,24.61,23.13,24.61a37.43,37.43,0,0,0,12.53-2.1s3.12-1.11,4-1.46,3.59-1.55,3.59-1.55l-5-11L213,71.2c-3.52,1.33-7.43,2.43-10.3,2.43-5.49,0-8.2-2.39-8.81-7.89l0-.29h27.89V61.66c0-17.13-7-25.82-20.75-25.82"/><path class="cls-2" d="M300.43,31.42a3.35,3.35,0,1,1-4.73-4.73C298.47,23.26,303.86,28.64,300.43,31.42ZM300.35,86h-4.57V44.73h4.57Z"/><path class="cls-2" d="M345.41,48.64c3,3,4.49,7,4.49,12V86h-4.57V61.22c0-7.76-4.9-13-12.08-13A12.38,12.38,0,0,0,324,52.07a13,13,0,0,0-3.59,9.14V86h-4.57V44.73h4.41v7c2-4.24,6.94-7.76,13.71-7.76A15.07,15.07,0,0,1,345.41,48.64Z"/><path class="cls-2" d="M391.46,55.66l-4.57.33c-.65-5-4.08-8-10-7.92-6.29-.08-9.63,2.78-9.63,7.59a8,8,0,0,0,.73,3.18,8,8,0,0,0,2.2,1.88c.65.33,2.78.9,3.51,1.14l2.12.49,2.29.49q7.59,1.84,11,4.16c2.29,1.55,3.43,4.08,3.43,7.51,0,7.84-5.88,12.25-15,12.25-8.82,0-14.69-4.25-15.76-11.75l4.57-.33c.9,5.31,5,8.08,11.27,8.08S388,80.07,388,74.85q0-3.67-2.45-5.14c-1.63-1.06-4.74-2-9.31-3.1-1.63-.41-2.69-.65-3.27-.74l-2.69-.82a20.82,20.82,0,0,1-2.69-1c-.9-.57-3-1.8-3.67-3a13,13,0,0,1-1.22-5.31c0-7.18,5.22-11.76,14.37-11.67C385.5,44,390.48,48.48,391.46,55.66Z"/><path class="cls-2" d="M410.24,31.42a3.35,3.35,0,1,1-4.73-4.73C408.28,23.26,413.67,28.64,410.24,31.42ZM410.16,86h-4.57V44.73h4.57Z"/><path class="cls-2" d="M458.4,52.73v-8h4.41V88.81c0,5.8-1.8,10.37-5.31,13.71s-8.16,5-14,5c-10.53,0-17.55-5.55-19.43-14l4.65-.16c1.22,6.29,7.18,10.29,14.61,10.29,8.9,0,14.86-5.39,14.86-14.53V78.36c-2.53,5-8.08,8.41-15.59,8.41a19.38,19.38,0,0,1-14.37-5.71q-5.63-5.76-5.63-15.67c0-6.61,1.88-11.76,5.63-15.59A19.44,19.44,0,0,1,442.65,44C450.16,44,455.87,47.5,458.4,52.73Zm-26.78-.08c-2.94,3-4.41,7.35-4.41,12.82,0,10.86,6.61,17.31,15.84,17.31,8.9,0,15.1-5.55,15.1-15.92V64c0-10.37-6-15.92-15.1-15.92A15.44,15.44,0,0,0,431.63,52.64Z"/><path class="cls-2" d="M482.65,22.6V51.5c2-4.16,6.94-7.51,13.55-7.51a15.07,15.07,0,0,1,11.43,4.65c3,3,4.49,7,4.49,12V86h-4.57V61.22c0-7.76-4.9-13-12.08-13a12.38,12.38,0,0,0-9.22,3.84,13,13,0,0,0-3.59,9.14V86h-4.57V22.6Z"/><path class="cls-2" d="M544.53,81.87V86a30.1,30.1,0,0,1-5.22.41c-7.18,0-11.51-4-11.51-12.49l.08-25.23H520v-4h7.84L528,30.11h4.65l-.08,14.61h11.84v4H532.53l-.16,24.41c0,6.12,2.61,9.14,7.84,9.14A35.39,35.39,0,0,0,544.53,81.87Z"/><path class="cls-2" d="M580.21,55.66l-4.57.33c-.65-5-4.08-8-10-7.92C559.39,48,556,50.85,556,55.66a8,8,0,0,0,.73,3.18,8,8,0,0,0,2.2,1.88c.65.33,2.78.9,3.51,1.14l2.12.49,2.29.49q7.59,1.84,11,4.16c2.29,1.55,3.43,4.08,3.43,7.51,0,7.84-5.88,12.25-15,12.25-8.82,0-14.69-4.25-15.76-11.75l4.57-.33c.9,5.31,5,8.08,11.27,8.08s10.37-2.69,10.37-7.92q0-3.67-2.45-5.14c-1.63-1.06-4.74-2-9.31-3.1-1.63-.41-2.69-.65-3.27-.74l-2.69-.82a20.82,20.82,0,0,1-2.69-1c-.9-.57-3-1.8-3.67-3a13,13,0,0,1-1.22-5.31c0-7.18,5.22-11.76,14.37-11.67C574.25,44,579.23,48.48,580.21,55.66Z"/><path class="cls-2" d="M579.37,0H588c4,0,6.7,2.09,6.7,6,0,2.21-.83,3.75-2.48,4.54,2,.68,3.42,2.54,3.42,5.28,0,4-2.8,6.26-6.93,6.26h-9.38Zm3.48,3.1V9.27h5.28c2,0,3-1,3-3s-1.39-3.13-3.54-3.13Zm0,9.18v6.67h5.49c2.24,0,3.75-1.06,3.75-3.3s-1.5-3.36-3.6-3.36Z"/><path class="cls-2" d="M616.11,3.1H605.75V9.18h9.06v3h-9.06v6.73h10.36v3.13H602.24V0h13.87Z"/><path class="cls-2" d="M639.6,3.1h-7.85v19h-3.51V3.1h-7.85V0H639.6Z"/><path class="cls-2" d="M660.41,22.07h-3.87l-2-4.93h-9.85l-2.07,4.93h-3.84L648.07,0h3ZM646,14h7.17l-3.57-8.59Z"/></g></g></svg>