<?xml version="1.0" encoding="UTF-8"?>
<svg width="266px" height="43px" viewBox="0 0 266 43" version="1.1" xmlns="http://www.w3.org/2000/svg" xmlns:xlink="http://www.w3.org/1999/xlink">
    <!-- Generator: Sketch 47 (45396) - http://www.bohemiancoding.com/sketch -->
    <title>Page 1</title>
    <desc>Created with Sketch.</desc>
    <defs>
        <polygon id="path-1" points="0 43 266 43 266 0 0 0"></polygon>
    </defs>
    <g id="Page-1" stroke="none" stroke-width="1" fill="none" fill-rule="evenodd">
        <g id="Register" transform="translate(-483.000000, -200.000000)">
            <g id="Page-1" transform="translate(483.000000, 200.000000)">
                <path d="M45.7123396,28.6386279 C45.074807,28.7808879 44.6578219,28.830957 44.1938025,28.830957 C43.551527,28.830957 43.458644,28.5492188 43.4341388,27.1826491 L43.4341388,19.1652282 L47.4692103,19.1544991 L47.4692103,14.7424539 L43.4444152,14.7424539 L43.4444152,9 L37.2509025,9.82971723 L37.2497167,14.7424539 L34,14.7424539 L34,19.1544991 L37.2734315,19.1652282 L37.2734315,27.8391112 C37.2734315,29.606234 37.4054439,30.3564764 37.8805302,31.325672 C38.7334721,33.0240491 40.6322363,34 43.0981792,34 C44.2819425,34 45.6226186,33.7949549 46.8431398,33.4412919 L49,32.841257 L47.8186082,28.1903899 L45.7123396,28.6386279 Z" id="Fill-1" fill="#FC4700"></path>
                <g id="Group-5" transform="translate(0.000000, 14.000000)" fill="#FC4700">
                    <path d="M15.7625186,14.047425 L15.8965419,6.73094423 C15.8965419,5.62844423 15.8601698,4.97138654 15.6395651,4.21902115 C14.8824721,1.71921346 12.2996581,0.338463462 8.6055186,0.338463462 C6.71535581,0.338463462 4.83942558,0.609444231 3.4731,1.079925 C2.35149535,1.46761731 1.46156512,1.97686731 1.46156512,1.97686731 L3.12282093,6.31255962 L4.52037907,5.70073269 C6.09861163,5.17290577 7.17593721,5.11475192 8.24298372,5.11475192 C9.73107674,5.11475192 9.99516977,5.55979038 10.0378674,7.096425 L9.99200698,7.72198269 C7.01858837,7.77690577 5.36326279,8.04707885 3.59644884,8.80550192 C1.21012326,9.82884808 -3.95348837e-05,11.7123865 -3.95348837e-05,14.4173481 C-3.95348837e-05,18.0753865 2.50014651,20.4407135 6.36942558,20.4407135 C8.12793721,20.4407135 9.48398372,19.9968865 10.8396349,18.9428481 L10.9040767,18.8923673 L11.7224488,20.7573288 L16.9497512,18.7425404 L16.5508442,17.7858288 C15.8965419,16.3610596 15.7625186,15.4931942 15.7625186,14.047425 L15.7625186,14.047425 Z M9.90542558,14.9706173 C9.20249535,15.6607904 8.46042558,16.0121365 7.66458837,16.0121365 C6.65170465,16.0121365 5.88828605,15.2165596 5.88828605,14.1596942 C5.88828605,13.0123673 6.52756512,11.9534827 10.0465651,11.8989635 L9.90542558,14.9706173 Z" id="Fill-3"></path>
                </g>
                <path d="M28.9067186,15.3520842 C27.2011685,15.3213274 25.9949367,15.9275597 24.5148978,17.5022258 L23.5797468,15 L18,16.8992311 C18,16.8992311 18.193184,17.3678673 18.3380721,17.7203561 C18.483739,18.0696074 18.7252191,18.6147309 18.7271665,18.6175637 C19.3293087,19.9445569 19.5030185,21.0886281 19.5030185,22.8065561 L19.5030185,35 L25.5372931,35 L25.5372931,22.0080939 C26.4389484,21.0886281 27.1415774,20.6968839 27.7300876,20.6968839 C28.0584226,20.6968839 28.4969815,20.7442331 28.9721519,20.9053015 C29.4465433,21.0627276 30.035443,21.2707406 30.035443,21.2707406 L32,16.2242007 L30.8962025,15.7264265 C30.423369,15.5277216 29.7316456,15.3646297 28.9067186,15.3520842" id="Fill-6" fill="#FC4700"></path>
                <path d="M63.3078884,14.5217984 C61.2573115,14.5217984 59.6172525,15.0275538 57.8560504,16.2845225 L57.8033271,16.3202182 L56.8603434,14 L51,16.0141981 C51,16.0141981 51.1203381,16.28733 51.2318218,16.5472266 C51.3469278,16.8091285 51.4865844,17.1849356 51.4865844,17.1849356 C51.9892675,18.2923034 52.2033807,19.334697 52.2033807,20.780973 L52.2033807,34 L58.4339952,34 L58.4339952,20.5539646 C59.5190502,19.7113063 60.2628119,19.4092969 61.1848672,19.4092969 C62.0175745,19.4092969 62.7649584,19.5909838 62.7649584,21.7748366 L62.7649584,34 L69,34 L69,20.780973 C69,16.5700878 67.1377784,14.5217984 63.3078884,14.5217984" id="Fill-8" fill="#FC4700"></path>
                <path d="M102.714662,28.6412392 C102.069688,28.7823115 101.660651,28.8335744 101.198261,28.8335744 C100.550916,28.8335744 100.461599,28.5530193 100.439073,27.1860088 L100.439073,19.1647566 L104.467791,19.1568088 L104.467791,14.7446234 L100.445396,14.7446234 L100.445396,9 L94.2553023,9.83053838 L94.2505599,14.7446234 L91,14.7446234 L91,19.1568088 L94.2742722,19.1647566 L94.2742722,27.8405048 C94.2742722,29.6096708 94.4078514,30.3591423 94.8852589,31.3247922 C95.7298116,33.0232233 97.6343038,34 100.09722,34 C101.282045,34 102.62416,33.8001144 103.842577,33.4436585 L106,32.8412201 L104.815571,28.196166 L102.714662,28.6412392 Z" id="Fill-10" fill="#FC4700"></path>
                <path d="M80.8675549,14 C75.5638715,14 72,18.0835814 72,24.1656046 C72,30.5077209 75.2202194,34 81.0638715,34 C82.7848746,34 84.351489,33.7311173 85.9757053,33.1605905 C85.9757053,33.1605905 87.1967085,32.7163147 87.5239028,32.5784774 C87.8503135,32.4454344 88.9314263,31.9608062 88.9314263,31.9608062 L86.9600313,27.5755808 L85.5615204,28.1249326 C84.1826019,28.655906 82.6508621,29.0953874 81.5266458,29.0953874 C79.3753918,29.0953874 78.3123041,28.1405142 78.0760188,25.9431071 L78.0701411,25.8272439 L89,25.8272439 L89,24.3146287 C89,17.469506 86.2664577,14 80.8675549,14 L80.8675549,14 Z M78.2049373,21.3293514 C78.5948276,18.9317805 79.382837,18.4531453 80.6375392,18.4531453 C81.6759404,18.4531453 82.492163,18.6860704 82.669279,21.3349448 L78.2049373,21.3293514 Z" id="Fill-12" fill="#FC4700"></path>
                <mask id="mask-2" fill="white">
                    <use xlink:href="#path-1"></use>
                </mask>
                <g id="Clip-15"></g>
                <path d="M119.466817,34 L121.477922,34 L121.477922,17.6008542 L119.466817,17.6008542 L119.466817,34 Z M121.513552,12.3184141 C120.939076,12.837289 120.005223,12.837289 119.431187,12.3184141 C118.856271,11.7999362 118.856271,10.9575089 119.431187,10.439031 C120.651838,9.07772885 123.021881,11.2167479 121.513552,12.3184141 L121.513552,12.3184141 Z" id="Fill-14" fill="#1E1E1E" mask="url(#mask-2)"></path>
                <path d="M139.153457,19.8814757 C140.395864,21.1030398 141,22.72047 141,24.7337662 L141,35 L139.120146,35 L139.120146,24.9650588 C139.120146,21.8288616 137.10581,19.7164978 134.151342,19.7164978 C132.640385,19.7164978 131.365078,20.2445887 130.3575,21.2680177 C129.384055,22.2910423 128.880677,23.5457638 128.880677,24.9650588 L128.880677,35 L127,35 L127,18.2972028 L128.812819,18.2972028 L128.812819,21.1357928 C129.618883,19.419295 131.666941,18 134.453205,18 C136.367193,18 137.945185,18.6271586 139.153457,19.8814757" id="Fill-16" fill="#1E1E1E" mask="url(#mask-2)"></path>
                <path d="M157.554343,22.6159428 L155.771713,22.746142 C155.517107,20.7632913 154.180524,19.5608397 151.888683,19.5930909 C149.437762,19.5608397 148.132761,20.6983908 148.132761,22.6159428 C148.132761,23.1359434 148.291841,23.5910434 148.418949,23.8836931 C148.578419,24.1759446 149.055658,24.4685942 149.278292,24.6314428 C149.533288,24.7612439 150.360659,24.9885948 150.647237,25.0861447 L151.474608,25.2812445 L152.365923,25.4763442 C154.339604,25.9640937 155.771713,26.5163455 156.663028,27.1342941 C157.554343,27.7518446 158,28.7591964 158,30.1244966 C158,33.2448984 155.708159,35 152.143289,35 C148.705917,35 146.414075,33.309799 146,30.3195964 L147.78263,30.1893972 C148.132761,32.3024471 149.72434,33.4073488 152.174871,33.4073488 C154.625792,33.4073488 156.21737,32.3350965 156.21737,30.2546959 C156.21737,29.2795952 155.89921,28.596746 155.262501,28.2069447 C154.625792,27.7844939 153.416317,27.3938962 151.633687,26.9718437 C150.997368,26.8093933 150.583683,26.7118434 150.360659,26.679194 L149.310264,26.353895 C148.801053,26.1914446 148.450921,26.0616435 148.259869,25.9640937 C147.910128,25.7363446 147.082367,25.2485951 146.827371,24.7612439 C146.604737,24.2412433 146.350521,23.5261429 146.350521,22.6485921 C146.350521,19.7881906 148.387367,17.9677904 151.952237,18.0004397 C155.230529,17.9677904 157.172239,19.7555413 157.554343,22.6159428" id="Fill-17" fill="#1E1E1E" mask="url(#mask-2)"></path>
                <path d="M163.466938,34 L165.478093,34 L165.478093,17.6008542 L163.466938,17.6008542 L163.466938,34 Z M165.513724,12.3184141 C164.939234,12.837289 164.005358,12.837289 163.430868,12.3184141 C162.856377,11.7999362 162.856377,10.9575089 163.430868,10.439031 C164.651989,9.07772885 167.021651,11.2167479 165.513724,12.3184141 L165.513724,12.3184141 Z" id="Fill-18" fill="#1E1E1E" mask="url(#mask-2)"></path>
                <path d="M173.577244,21.4060493 C172.406473,22.5951946 171.821287,24.2980224 171.821287,26.4511588 C171.821287,30.7247607 174.455222,33.263651 178.130063,33.263651 C181.674642,33.263651 184.146048,31.0786308 184.146048,26.9975123 L184.146048,25.8729217 C184.146048,21.7918031 181.739574,19.606783 178.130063,19.606783 C176.276111,19.606783 174.78068,20.2169039 173.577244,21.4060493 M184.243645,21.4383266 L184.243645,18.2893154 L186,18.2893154 L186,35.6415481 C186,37.922613 185.284153,39.7226666 183.885921,41.0397405 C182.48729,42.3572081 180.634134,43 178.32486,43 C174.130163,43 171.3333,40.8149798 170.585186,37.5053691 L172.439139,37.4408143 C172.926727,39.9151499 175.300535,41.4896555 178.259928,41.4896555 C181.804506,41.4896555 184.178314,39.3687964 184.178314,35.7702639 L184.178314,31.5281522 C183.170472,33.4884116 180.959193,34.8381566 177.967534,34.8381566 C175.658658,34.8381566 173.77204,34.0993198 172.243545,32.5889753 C170.747716,31.0786308 170,29.0219329 170,26.4192751 C170,23.8162237 170.747716,21.7918031 172.243545,20.2814586 C173.77204,18.7711141 175.658658,18 177.967534,18 C180.959193,18 183.235404,19.3816287 184.243645,21.4383266" id="Fill-19" fill="#1E1E1E" mask="url(#mask-2)"></path>
                <path d="M193.880266,9 L193.880266,20.3899355 C194.685917,18.7487821 196.733564,17.4296322 199.453205,17.4296322 C201.366782,17.4296322 202.944774,18.0409264 204.153046,19.2639088 C205.395453,20.4541786 206,22.0306948 206,23.9934575 L206,34 L204.119734,34 L204.119734,24.2185051 C204.119734,21.1620343 202.105399,19.10271 199.150931,19.10271 C197.640385,19.10271 196.364667,19.6174426 195.3575,20.6149832 C194.384055,21.6125238 193.880266,22.8351122 193.880266,24.2185051 L193.880266,34 L192,34 L192,9 L193.880266,9 Z" id="Fill-20" fill="#1E1E1E" mask="url(#mask-2)"></path>
                <path d="M219,32.2147067 L219,33.8406476 C218.433238,33.9363372 217.732952,34 216.866476,34 C213.933442,34 212.166599,32.4377219 212.166599,29.1217867 L212.200082,19.2692799 L209,19.2692799 L209,17.7070018 L212.200082,17.7070018 L212.233156,12 L214.133116,12 L214.100041,17.7070018 L218.933442,17.7070018 L218.933442,19.2692799 L214.100041,19.2692799 L214.033075,28.8030819 C214.033075,31.1945391 215.099633,32.3740591 217.233156,32.3740591 C217.666394,32.3740591 218.266639,32.3103963 219,32.2147067" id="Fill-21" fill="#1E1E1E" mask="url(#mask-2)"></path>
                <path d="M233.554343,22.6159428 L231.771713,22.746142 C231.517107,20.7632913 230.180524,19.5608397 227.888683,19.5930909 C225.437762,19.5608397 224.132761,20.6983908 224.132761,22.6159428 C224.132761,23.1359434 224.291841,23.5910434 224.418949,23.8836931 C224.578419,24.1759446 225.055658,24.4685942 225.278292,24.6314428 C225.533288,24.7612439 226.360659,24.9885948 226.647237,25.0861447 L227.474608,25.2812445 L228.365923,25.4763442 C230.339604,25.9640937 231.771713,26.5163455 232.663028,27.1342941 C233.554343,27.7518446 234,28.7591964 234,30.1244966 C234,33.2448984 231.708159,35 228.143289,35 C224.705917,35 222.414075,33.309799 222,30.3195964 L223.78263,30.1893972 C224.132761,32.3024471 225.72434,33.4073488 228.174871,33.4073488 C230.625792,33.4073488 232.21737,32.3350965 232.21737,30.2546959 C232.21737,29.2795952 231.89921,28.596746 231.262501,28.2069447 C230.625792,27.7844939 229.416317,27.3938962 227.633687,26.9718437 C226.997368,26.8093933 226.583683,26.7118434 226.360659,26.679194 L225.310264,26.353895 C224.801053,26.1914446 224.450921,26.0616435 224.259869,25.9640937 C223.910128,25.7363446 223.082367,25.2485951 222.827761,24.7612439 C222.604737,24.2412433 222.350521,23.5261429 222.350521,22.6485921 C222.350521,19.7881906 224.387367,17.9677904 227.952237,18.0004397 C231.230529,17.9677904 233.172239,19.7555413 233.554343,22.6159428" id="Fill-22" fill="#1E1E1E" mask="url(#mask-2)"></path>
                <path d="M234.493442,5.005437 L234.493442,7.72448009 L236.847941,7.72448009 C237.810248,7.72448009 238.455933,7.29101536 238.455933,6.37678402 C238.455933,5.4507272 237.810248,5.005437 236.911437,5.005437 L234.493442,5.005437 Z M234.493442,1.26328667 L234.493442,3.77803452 L236.759132,3.77803452 C237.632631,3.77803452 238.062944,3.36903629 238.062944,2.53880658 C238.062944,1.70857687 237.468313,1.26328667 236.54419,1.26328667 L234.493442,1.26328667 Z M233,0 L236.720949,0 C238.443062,0 239.594999,0.854288433 239.594999,2.4425717 C239.594999,3.34497757 239.240623,3.97050428 238.531442,4.29550088 C239.40494,4.57238005 240,5.33002583 240,6.44936795 C240,8.09759413 238.797438,9 237.025129,9 L233,9 L233,0 Z" id="Fill-23" fill="#1E1E1E" mask="url(#mask-2)"></path>
                <polygon id="Fill-24" fill="#1E1E1E" mask="url(#mask-2)" points="248 1.26328667 243.519469 1.26328667 243.519469 3.74174256 247.437987 3.74174256 247.437987 4.9809705 243.519469 4.9809705 243.519469 7.72448009 248 7.72448009 248 9 242 9 242 0 248 0"></polygon>
                <polygon id="Fill-25" fill="#1E1E1E" mask="url(#mask-2)" points="258 1.26328667 254.730945 1.26328667 254.730945 9 253.269055 9 253.269055 1.26328667 250 1.26328667 250 0 258 0"></polygon>
                <path d="M260.016484,5.71537311 L262.995567,5.71537311 L261.512882,2.21421775 L260.016484,5.71537311 Z M266,9 L264.39348,9 L263.547419,6.99089303 L259.452581,6.99089303 L258.594053,9 L257,9 L260.874596,0 L262.113353,0 L266,9 Z" id="Fill-26" fill="#1E1E1E" mask="url(#mask-2)"></path>
            </g>
        </g>
    </g>
</svg>